<svg xmlns="http://www.w3.org/2000/svg" xmlns:xlink="http://www.w3.org/1999/xlink" width="500" zoomAndPan="magnify" viewBox="0 0 375 374.999991" height="500" preserveAspectRatio="xMidYMid meet" version="1.0"><defs><g/><clipPath id="c762a41dec"><path d="M 8.230469 13.277344 L 374.980469 13.277344 L 374.980469 362 L 8.230469 362 Z M 8.230469 13.277344 " clip-rule="nonzero"/></clipPath></defs><rect x="-37.5" width="450" fill="#ffffff" y="-37.499999" height="449.999989" fill-opacity="1"/><rect x="-37.5" width="450" fill="#02402d" y="-37.499999" height="449.999989" fill-opacity="1"/><g clip-path="url(#c762a41dec)"><path fill="#e1deda" d="M 95.535156 34.921875 C 98.082031 34.921875 100.179688 37.003906 100.179688 39.574219 C 100.179688 42.140625 98.082031 44.226562 95.535156 44.226562 C 92.960938 44.226562 90.863281 42.140625 90.863281 39.574219 C 90.863281 37.003906 92.960938 34.921875 95.535156 34.921875 Z M 12.898438 209.921875 C 15.476562 209.921875 17.570312 212.003906 17.570312 214.574219 C 17.570312 217.140625 15.476562 219.226562 12.898438 219.226562 C 10.324219 219.226562 8.257812 217.140625 8.257812 214.574219 C 8.257812 212.003906 10.324219 209.921875 12.898438 209.921875 Z M 326.316406 77.792969 C 328.890625 77.792969 330.957031 79.875 330.957031 82.441406 C 330.957031 85.011719 328.890625 87.097656 326.316406 87.097656 C 323.738281 87.097656 321.644531 85.011719 321.644531 82.441406 C 321.644531 79.875 323.738281 77.792969 326.316406 77.792969 Z M 247.929688 19.933594 C 250.507812 19.933594 252.605469 22.019531 252.605469 24.585938 C 252.605469 27.15625 250.507812 29.242188 247.929688 29.242188 C 245.386719 29.242188 243.289062 27.15625 243.289062 24.585938 C 243.289062 22.019531 245.386719 19.933594 247.929688 19.933594 Z M 371.78125 202.277344 C 373.429688 202.277344 374.777344 203.550781 374.777344 205.121094 C 374.777344 206.6875 373.429688 207.960938 371.78125 207.960938 C 370.136719 207.960938 368.816406 206.6875 368.816406 205.121094 C 368.816406 203.550781 370.136719 202.277344 371.78125 202.277344 Z M 335.839844 91.390625 C 337.488281 91.390625 338.804688 92.664062 338.804688 94.234375 C 338.804688 95.804688 337.488281 97.078125 335.839844 97.078125 C 334.191406 97.078125 332.84375 95.804688 332.84375 94.234375 C 332.84375 92.664062 334.191406 91.390625 335.839844 91.390625 Z M 109.015625 31.628906 C 110.660156 31.628906 112.007812 32.902344 112.007812 34.472656 C 112.007812 36.042969 110.660156 37.316406 109.015625 37.316406 C 107.367188 37.316406 106.050781 36.042969 106.050781 34.472656 C 106.050781 32.902344 107.367188 31.628906 109.015625 31.628906 Z M 82.058594 36.015625 C 83.707031 36.015625 85.054688 37.289062 85.054688 38.859375 C 85.054688 40.429688 83.707031 41.707031 82.058594 41.707031 C 80.410156 41.707031 79.09375 40.429688 79.09375 38.859375 C 79.09375 37.289062 80.410156 36.015625 82.058594 36.015625 Z M 17.632812 164.710938 C 19.277344 164.710938 20.625 165.984375 20.625 167.554688 C 20.625 169.125 19.277344 170.398438 17.632812 170.398438 C 15.984375 170.398438 14.667969 169.125 14.667969 167.554688 C 14.667969 165.984375 15.984375 164.710938 17.632812 164.710938 Z M 48.121094 293.804688 C 49.769531 293.804688 51.117188 295.078125 51.117188 296.644531 C 51.117188 298.214844 49.769531 299.492188 48.121094 299.492188 C 46.476562 299.492188 45.15625 298.214844 45.15625 296.644531 C 45.15625 295.078125 46.476562 293.804688 48.121094 293.804688 Z M 143.308594 355.851562 C 144.957031 355.851562 146.304688 357.128906 146.304688 358.695312 C 146.304688 360.265625 144.957031 361.539062 143.308594 361.539062 C 141.660156 361.539062 140.34375 360.265625 140.34375 358.695312 C 140.34375 357.128906 141.660156 355.851562 143.308594 355.851562 Z M 269.136719 348.277344 C 270.785156 348.277344 272.101562 349.554688 272.101562 351.121094 C 272.101562 352.6875 270.785156 353.964844 269.136719 353.964844 C 267.488281 353.964844 266.140625 352.6875 266.140625 351.121094 C 266.140625 349.554688 267.488281 348.277344 269.136719 348.277344 Z M 334.582031 298.410156 C 336.230469 298.410156 337.578125 299.683594 337.578125 301.253906 C 337.578125 302.824219 336.230469 304.09375 334.582031 304.09375 C 332.933594 304.09375 331.617188 302.824219 331.617188 301.253906 C 331.617188 299.683594 332.933594 298.410156 334.582031 298.410156 Z M 327.484375 306.679688 C 329.128906 306.679688 330.480469 307.957031 330.480469 309.527344 C 330.480469 311.09375 329.128906 312.367188 327.484375 312.367188 C 325.867188 312.367188 324.519531 311.09375 324.519531 309.527344 C 324.519531 307.957031 325.867188 306.679688 327.484375 306.679688 Z M 319.996094 314.851562 C 321.644531 314.851562 322.960938 316.125 322.960938 317.695312 C 322.960938 319.261719 321.644531 320.539062 319.996094 320.539062 C 318.347656 320.539062 317 319.261719 317 317.695312 C 317 316.125 318.347656 314.851562 319.996094 314.851562 Z M 329.039062 315.992188 C 330.6875 315.992188 332.035156 317.269531 332.035156 318.835938 C 332.035156 320.40625 330.6875 321.679688 329.039062 321.679688 C 327.394531 321.679688 326.074219 320.40625 326.074219 318.835938 C 326.074219 317.269531 327.394531 315.992188 329.039062 315.992188 Z M 278.8125 344.640625 C 280.457031 344.640625 281.777344 345.914062 281.777344 347.484375 C 281.777344 349.054688 280.457031 350.328125 278.8125 350.328125 C 277.164062 350.328125 275.847656 349.054688 275.847656 347.484375 C 275.847656 345.914062 277.164062 344.640625 278.8125 344.640625 Z M 284.773438 339.511719 C 285.671875 339.511719 286.359375 340.164062 286.359375 340.960938 C 286.359375 341.757812 285.671875 342.40625 284.773438 342.40625 C 283.902344 342.40625 283.214844 341.757812 283.214844 340.960938 C 283.214844 340.164062 283.902344 339.511719 284.773438 339.511719 Z M 285.640625 345.582031 C 286.507812 345.582031 287.199219 346.230469 287.199219 347.027344 C 287.199219 347.824219 286.507812 348.476562 285.640625 348.476562 C 284.742188 348.476562 284.054688 347.824219 284.054688 347.027344 C 284.054688 346.230469 284.742188 345.582031 285.640625 345.582031 Z M 313.824219 319.429688 C 314.695312 319.429688 315.382812 320.078125 315.382812 320.875 C 315.382812 321.675781 314.695312 322.320312 313.824219 322.320312 C 312.925781 322.320312 312.238281 321.675781 312.238281 320.875 C 312.238281 320.078125 312.925781 319.429688 313.824219 319.429688 Z M 164.605469 18.570312 C 165.472656 18.570312 166.191406 19.21875 166.191406 20.015625 C 166.191406 20.8125 165.472656 21.464844 164.605469 21.464844 C 163.734375 21.464844 163.019531 20.8125 163.019531 20.015625 C 163.019531 19.21875 163.734375 18.570312 164.605469 18.570312 Z M 41.203125 98.847656 C 42.070312 98.847656 42.761719 99.496094 42.761719 100.292969 C 42.761719 101.089844 42.070312 101.742188 41.203125 101.742188 C 40.304688 101.742188 39.617188 101.089844 39.617188 100.292969 C 39.617188 99.496094 40.304688 98.847656 41.203125 98.847656 Z M 148.402344 22.191406 C 149.269531 22.191406 149.988281 22.839844 149.988281 23.636719 C 149.988281 24.433594 149.269531 25.085938 148.402344 25.085938 C 147.503906 25.085938 146.8125 24.433594 146.8125 23.636719 C 146.8125 22.839844 147.503906 22.191406 148.402344 22.191406 Z M 167.421875 13.324219 C 168.289062 13.324219 169.007812 13.96875 169.007812 14.769531 C 169.007812 15.566406 168.289062 16.214844 167.421875 16.214844 C 166.550781 16.214844 165.832031 15.566406 165.832031 14.769531 C 165.832031 13.96875 166.550781 13.324219 167.421875 13.324219 Z M 13.917969 201.113281 C 14.785156 201.113281 15.503906 201.757812 15.503906 202.558594 C 15.503906 203.355469 14.785156 204.003906 13.917969 204.003906 C 13.050781 204.003906 12.328125 203.355469 12.328125 202.558594 C 12.328125 201.757812 13.050781 201.113281 13.917969 201.113281 Z M 44.917969 285.808594 C 45.785156 285.808594 46.503906 286.457031 46.503906 287.257812 C 46.503906 288.054688 45.785156 288.703125 44.917969 288.703125 C 44.019531 288.703125 43.328125 288.054688 43.328125 287.257812 C 43.328125 286.457031 44.019531 285.808594 44.917969 285.808594 Z M 53.574219 304.480469 C 54.472656 304.480469 55.160156 305.125 55.160156 305.925781 C 55.160156 306.722656 54.472656 307.367188 53.574219 307.367188 C 52.707031 307.367188 51.984375 306.722656 51.984375 305.925781 C 51.984375 305.125 52.707031 304.480469 53.574219 304.480469 Z M 367.078125 214.089844 C 367.949219 214.089844 368.667969 214.738281 368.667969 215.535156 C 368.667969 216.335938 367.949219 216.984375 367.078125 216.984375 C 366.210938 216.984375 365.492188 216.335938 365.492188 215.535156 C 365.492188 214.738281 366.210938 214.089844 367.078125 214.089844 Z M 361.058594 148.6875 C 361.929688 148.6875 362.617188 149.335938 362.617188 150.128906 C 362.617188 150.929688 361.929688 151.578125 361.058594 151.578125 C 360.160156 151.578125 359.472656 150.929688 359.472656 150.128906 C 359.472656 149.335938 360.160156 148.6875 361.058594 148.6875 Z M 340.78125 101.515625 C 341.648438 101.515625 342.371094 102.164062 342.371094 102.960938 C 342.371094 103.757812 341.648438 104.410156 340.78125 104.410156 C 339.914062 104.410156 339.195312 103.757812 339.195312 102.960938 C 339.195312 102.164062 339.914062 101.515625 340.78125 101.515625 Z M 369.6875 189.027344 C 371.332031 189.027344 372.679688 190.300781 372.679688 191.867188 C 372.679688 193.4375 371.332031 194.714844 369.6875 194.714844 C 368.039062 194.714844 366.71875 193.4375 366.71875 191.867188 C 366.71875 190.300781 368.039062 189.027344 369.6875 189.027344 Z M 174.488281 15.316406 C 176.105469 15.316406 177.453125 16.59375 177.453125 18.164062 C 177.453125 19.730469 176.105469 21.003906 174.488281 21.003906 C 172.84375 21.003906 171.492188 19.730469 171.492188 18.164062 C 171.492188 16.59375 172.84375 15.316406 174.488281 15.316406 Z M 22.183594 192.609375 C 22.183594 191.625 22.183594 190.640625 22.183594 189.65625 C 22.183594 98.472656 95.984375 24.445312 186.917969 24.445312 C 188.117188 24.445312 189.34375 24.457031 190.542969 24.484375 C 191.5625 24.464844 192.550781 24.457031 193.570312 24.457031 C 240.082031 24.457031 281.957031 45.507812 310.890625 78.988281 C 343.359375 108.46875 363.664062 150.3125 363.664062 196.691406 C 363.664062 285.871094 288.636719 358.285156 196.234375 358.285156 C 172.121094 358.285156 149.210938 353.359375 128.484375 344.496094 C 66.363281 321.59375 22.183594 263.253906 22.183594 194.976562 C 22.183594 194.1875 22.183594 193.398438 22.183594 192.609375 Z M 50.816406 118.589844 C 37.429688 141.710938 29.820312 168.347656 29.820312 196.691406 C 29.820312 196.777344 29.820312 196.863281 29.820312 196.953125 C 30.75 272.835938 85.503906 335.988281 158.015625 350.652344 C 87.839844 333.78125 35.453125 268.0625 35.453125 189.65625 C 35.453125 164.21875 40.964844 140.117188 50.816406 118.589844 Z M 321.644531 94.605469 C 318.136719 89.4375 314.335938 84.496094 310.289062 79.792969 C 309.660156 79.226562 309.035156 78.664062 308.402344 78.109375 C 313.167969 83.3125 317.597656 88.824219 321.644531 94.605469 Z M 171.40625 354.15625 C 178.53125 355.085938 185.8125 355.566406 193.210938 355.566406 C 283.394531 355.566406 356.597656 283.996094 356.597656 195.832031 C 356.597656 168.0625 349.347656 141.9375 336.558594 119.179688 C 345.066406 137.945312 350.277344 158.652344 351.414062 180.476562 C 351.59375 183.515625 351.65625 186.574219 351.65625 189.65625 C 351.65625 190.640625 351.65625 191.625 351.65625 192.609375 C 351.65625 193.398438 351.65625 194.1875 351.65625 194.976562 C 351.65625 197.992188 351.566406 200.984375 351.414062 203.953125 C 348.660156 253.082031 323.46875 296.324219 285.820312 323.78125 C 259.851562 343.332031 227.984375 354.855469 193.570312 354.855469 C 192.96875 354.855469 192.371094 354.851562 191.773438 354.84375 C 191.261719 354.847656 190.753906 354.851562 190.242188 354.851562 C 189.914062 354.851562 189.585938 354.847656 189.253906 354.847656 C 188.476562 354.859375 187.699219 354.863281 186.917969 354.863281 C 183.835938 354.863281 180.777344 354.78125 177.753906 354.613281 C 175.628906 354.5 173.5 354.34375 171.40625 354.15625 Z M 169.1875 26.410156 C 94.847656 34.460938 35.363281 92.484375 24.851562 166.257812 C 32.21875 126.808594 54.53125 92.386719 85.890625 68.714844 C 108.503906 46.734375 137.257812 31.582031 169.1875 26.410156 Z M 325.085938 101.546875 C 303.523438 72.796875 272.371094 51.347656 236.28125 41.710938 C 293.546875 58.585938 337.546875 106.132812 348.839844 165.085938 C 345.363281 141.984375 337.097656 120.453125 325.085938 101.546875 Z M 295.433594 313.914062 C 301.515625 308.691406 307.207031 303.035156 312.417969 297 C 315.683594 293.0625 318.769531 288.957031 321.644531 284.703125 C 314.09375 295.453125 305.289062 305.261719 295.433594 313.914062 Z M 350.636719 192.113281 C 349.078125 107.277344 278.871094 38.578125 191.683594 36.160156 C 134.832031 37.636719 85.054688 66.675781 56.210938 109.921875 C 43.628906 133.539062 36.441406 160.726562 36.441406 189.65625 C 36.441406 279.058594 104.972656 351.878906 190.0625 353.824219 C 278.183594 352.15625 349.347656 280.554688 350.636719 192.113281 Z M 311.789062 274.859375 C 314.363281 274.859375 316.460938 276.945312 316.460938 279.511719 C 316.460938 282.082031 314.363281 284.164062 311.789062 284.164062 C 309.242188 284.164062 307.144531 282.082031 307.144531 279.511719 C 307.144531 276.945312 309.242188 274.859375 311.789062 274.859375 Z M 247.210938 58.808594 C 248.082031 58.808594 248.800781 59.453125 248.800781 60.253906 C 248.800781 61.050781 248.082031 61.699219 247.210938 61.699219 C 246.34375 61.699219 245.625 61.050781 245.625 60.253906 C 245.625 59.453125 246.34375 58.808594 247.210938 58.808594 Z M 306.875 288.136719 C 307.746094 288.136719 308.464844 288.785156 308.464844 289.582031 C 308.464844 290.378906 307.746094 291.03125 306.875 291.03125 C 306.007812 291.03125 305.289062 290.378906 305.289062 289.582031 C 305.289062 288.785156 306.007812 288.136719 306.875 288.136719 Z M 83.914062 94.113281 C 84.785156 94.113281 85.503906 94.761719 85.503906 95.558594 C 85.503906 96.359375 84.785156 97.003906 83.914062 97.003906 C 83.046875 97.003906 82.328125 96.359375 82.328125 95.558594 C 82.328125 94.761719 83.046875 94.113281 83.914062 94.113281 Z M 50.128906 140.433594 C 52.707031 140.433594 54.800781 142.519531 54.800781 145.089844 C 54.800781 147.65625 52.707031 149.742188 50.128906 149.742188 C 47.582031 149.742188 45.488281 147.65625 45.488281 145.089844 C 45.488281 142.519531 47.582031 140.433594 50.128906 140.433594 Z M 338.773438 152.808594 C 340.421875 152.808594 341.769531 154.082031 341.769531 155.652344 C 341.769531 157.21875 340.421875 158.496094 338.773438 158.496094 C 337.128906 158.496094 335.808594 157.21875 335.808594 155.652344 C 335.808594 154.082031 337.128906 152.808594 338.773438 152.808594 Z M 335.03125 142.433594 C 336.648438 142.433594 337.996094 143.710938 337.996094 145.277344 C 337.996094 146.84375 336.648438 148.121094 335.03125 148.121094 C 333.382812 148.121094 332.035156 146.84375 332.035156 145.277344 C 332.035156 143.710938 333.382812 142.433594 335.03125 142.433594 Z M 74.328125 282.515625 C 75.976562 282.515625 77.324219 283.789062 77.324219 285.355469 C 77.324219 286.925781 75.976562 288.203125 74.328125 288.203125 C 72.683594 288.203125 71.367188 286.925781 71.367188 285.355469 C 71.367188 283.789062 72.683594 282.515625 74.328125 282.515625 Z M 67.230469 273.714844 C 68.878906 273.714844 70.195312 274.988281 70.195312 276.558594 C 70.195312 278.125 68.878906 279.398438 67.230469 279.398438 C 65.585938 279.398438 64.265625 278.125 64.265625 276.558594 C 64.265625 274.988281 65.585938 273.714844 67.230469 273.714844 Z M 42.941406 201.746094 C 44.589844 201.746094 45.9375 203.019531 45.9375 204.589844 C 45.9375 206.160156 44.589844 207.433594 42.941406 207.433594 C 41.292969 207.433594 39.976562 206.160156 39.976562 204.589844 C 39.976562 203.019531 41.292969 201.746094 42.941406 201.746094 Z M 55.191406 153.703125 C 56.058594 153.703125 56.777344 154.351562 56.777344 155.152344 C 56.777344 155.949219 56.058594 156.59375 55.191406 156.59375 C 54.324219 156.59375 53.605469 155.949219 53.605469 155.152344 C 53.605469 154.351562 54.324219 153.703125 55.191406 153.703125 Z M 244.277344 50.769531 C 245.925781 50.769531 247.242188 52.042969 247.242188 53.613281 C 247.242188 55.183594 245.925781 56.457031 244.277344 56.457031 C 242.628906 56.457031 241.28125 55.183594 241.28125 53.613281 C 241.28125 52.042969 242.628906 50.769531 244.277344 50.769531 Z M 320.65625 266.875 C 322.300781 266.875 323.621094 268.148438 323.621094 269.714844 C 323.621094 271.285156 322.300781 272.5625 320.65625 272.5625 C 319.007812 272.5625 317.6875 271.285156 317.6875 269.714844 C 317.6875 268.148438 319.007812 266.875 320.65625 266.875 Z M 185.453125 41.792969 C 186.320312 41.792969 187.039062 42.4375 187.039062 43.238281 C 187.039062 44.035156 186.320312 44.683594 185.453125 44.683594 C 184.582031 44.683594 183.863281 44.035156 183.863281 43.238281 C 183.863281 42.4375 184.582031 41.792969 185.453125 41.792969 Z M 145.554688 330.921875 C 148.132812 330.921875 150.226562 333.003906 150.226562 335.574219 C 150.226562 338.140625 148.132812 340.226562 145.554688 340.226562 C 142.980469 340.226562 140.914062 338.140625 140.914062 335.574219 C 140.914062 333.003906 142.980469 330.921875 145.554688 330.921875 Z M 77.085938 96.660156 C 78.703125 96.660156 80.050781 97.933594 80.050781 99.503906 C 80.050781 101.074219 78.703125 102.347656 77.085938 102.347656 C 75.4375 102.347656 74.089844 101.074219 74.089844 99.503906 C 74.089844 97.933594 75.4375 96.660156 77.085938 96.660156 Z M 48.09375 155.542969 C 49.738281 155.542969 51.085938 156.820312 51.085938 158.386719 C 51.085938 159.957031 49.738281 161.230469 48.09375 161.230469 C 46.445312 161.230469 45.128906 159.957031 45.128906 158.386719 C 45.128906 156.820312 46.445312 155.542969 48.09375 155.542969 Z M 344.105469 192.921875 C 344.976562 192.921875 345.695312 193.574219 345.695312 194.371094 C 345.695312 195.167969 344.976562 195.816406 344.105469 195.816406 C 343.238281 195.816406 342.519531 195.167969 342.519531 194.371094 C 342.519531 193.574219 343.238281 192.921875 344.105469 192.921875 Z M 79.273438 88.390625 C 80.917969 88.390625 82.265625 89.664062 82.265625 91.234375 C 82.265625 92.804688 80.917969 94.078125 79.273438 94.078125 C 77.625 94.078125 76.308594 92.804688 76.308594 91.234375 C 76.308594 89.664062 77.625 88.390625 79.273438 88.390625 Z M 156.90625 338.625 C 158.554688 338.625 159.875 339.902344 159.875 341.472656 C 159.875 343.042969 158.554688 344.316406 156.90625 344.316406 C 155.261719 344.316406 153.914062 343.042969 153.914062 341.472656 C 153.914062 339.902344 155.261719 338.625 156.90625 338.625 Z M 251.617188 54.457031 C 252.484375 54.457031 253.203125 55.105469 253.203125 55.90625 C 253.203125 56.703125 252.484375 57.351562 251.617188 57.351562 C 250.746094 57.351562 250.027344 56.703125 250.027344 55.90625 C 250.027344 55.105469 250.746094 54.457031 251.617188 54.457031 Z M 148.789062 40.433594 C 125.757812 45.769531 104.640625 55.828125 86.519531 69.496094 C 80.410156 75.441406 74.75 81.894531 69.597656 88.785156 C 90.355469 65.695312 117.730469 48.589844 148.789062 40.433594 Z M 301.214844 72.117188 C 283.542969 58.238281 262.875 47.78125 240.292969 41.804688 C 270.753906 50.707031 297.53125 68.023438 317.777344 90.988281 C 312.71875 84.277344 307.207031 77.972656 301.214844 72.117188 Z M 304.660156 73.601562 C 281.988281 49.894531 252.425781 33.386719 219.417969 27.664062 C 251.136719 34.039062 279.589844 49.5625 301.90625 71.375 C 302.832031 72.109375 303.761719 72.847656 304.660156 73.601562 Z M 146.992188 350.121094 C 162.570312 354.769531 179.101562 357.277344 196.234375 357.277344 C 288.066406 357.277344 362.648438 285.324219 362.648438 196.691406 C 362.648438 153.519531 344.945312 114.304688 316.191406 85.4375 C 321.941406 92.800781 327.0625 100.6875 331.558594 109.019531 C 348.03125 134.066406 357.585938 163.863281 357.585938 195.832031 C 357.585938 284.539062 283.933594 356.5625 193.210938 356.5625 C 177.214844 356.5625 161.730469 354.324219 147.113281 350.148438 C 147.082031 350.140625 147.023438 350.132812 146.992188 350.121094 Z M 27.785156 232.496094 C 35.78125 264.511719 53.785156 292.75 78.402344 313.914062 C 54.234375 292.683594 36.320312 264.5 27.785156 232.496094 Z M 294.328125 65.757812 C 266.292969 41.300781 229.898438 26.242188 190.0625 25.484375 C 152.894531 26.335938 118.898438 40.703125 92.390625 64.0625 C 119.136719 45.816406 151.753906 35.101562 186.917969 35.101562 C 187.578125 35.101562 188.207031 35.105469 188.867188 35.113281 C 189.316406 35.105469 189.765625 35.105469 190.242188 35.105469 C 190.601562 35.105469 190.992188 35.105469 191.382812 35.109375 C 191.980469 35.105469 192.582031 35.101562 193.210938 35.101562 C 193.597656 35.101562 193.988281 35.101562 194.347656 35.105469 C 194.976562 35.097656 195.605469 35.09375 196.234375 35.09375 C 232.867188 35.09375 266.742188 46.46875 294.328125 65.757812 Z M 80.320312 74.402344 C 46.054688 102.972656 24.070312 145.058594 23.203125 192.113281 C 24.042969 248.796875 53.574219 298.558594 97.871094 327.429688 C 56.03125 298.042969 28.804688 250.40625 28.804688 196.691406 C 28.804688 196.175781 28.804688 195.660156 28.804688 195.148438 C 28.804688 194.863281 28.804688 194.582031 28.804688 194.300781 C 28.984375 157.769531 41.53125 124.109375 62.53125 97.246094 C 67.800781 89.082031 73.761719 81.4375 80.320312 74.402344 Z M 80.320312 74.402344 " fill-opacity="1" fill-rule="evenodd"/></g><g fill="#e1deda" fill-opacity="1"><g transform="translate(48.533185, 244.3767)"><g><path d="M 0.328125 -0.828125 C 3.191406 -2.816406 5.617188 -5.132812 7.609375 -7.78125 C 9.597656 -10.425781 11.304688 -13.625 12.734375 -17.375 L 51.78125 -116.484375 L 57.40625 -116.484375 L 96.453125 -17.375 C 98.003906 -13.507812 99.492188 -10.363281 100.921875 -7.9375 C 102.359375 -5.507812 104.179688 -3.140625 106.390625 -0.828125 L 106.390625 0 L 76.9375 0 L 76.9375 -0.828125 C 78.039062 -2.035156 78.945312 -3.519531 79.65625 -5.28125 C 80.375 -7.050781 80.734375 -8.929688 80.734375 -10.921875 C 80.734375 -12.898438 80.296875 -15.101562 79.421875 -17.53125 L 70.65625 -40.046875 L 26.140625 -40.046875 L 17.375 -17.875 C 16.382812 -15.21875 15.890625 -12.789062 15.890625 -10.59375 C 15.890625 -6.613281 17.539062 -3.359375 20.84375 -0.828125 L 20.84375 0 L 0.328125 0 Z M 48.3125 -97.28125 L 27.296875 -43.515625 L 69.328125 -43.515625 Z M 48.3125 -97.28125 "/></g></g></g><g fill="#e1deda" fill-opacity="1"><g transform="translate(149.36519, 244.3767)"><g><path d="M 13.890625 -0.828125 C 15.328125 -2.816406 16.539062 -5.296875 17.53125 -8.265625 C 18.53125 -11.242188 19.03125 -14.28125 19.03125 -17.375 L 19.03125 -98.4375 C 19.03125 -101.53125 18.53125 -104.566406 17.53125 -107.546875 C 16.539062 -110.523438 15.328125 -113.003906 13.890625 -114.984375 L 13.890625 -115.8125 L 53.28125 -115.8125 C 65.851562 -115.8125 76.300781 -113.191406 84.625 -107.953125 C 92.957031 -102.710938 97.125 -94.03125 97.125 -81.90625 C 97.125 -74.070312 95.21875 -67.535156 91.40625 -62.296875 C 87.601562 -57.054688 82.613281 -53.222656 76.4375 -50.796875 C 70.257812 -48.367188 63.585938 -47.15625 56.421875 -47.15625 C 50.347656 -47.15625 44.773438 -48.203125 39.703125 -50.296875 L 39.703125 -52.28125 C 43.785156 -51.289062 48.085938 -50.796875 52.609375 -50.796875 C 61.546875 -50.796875 68.441406 -53.71875 73.296875 -59.5625 C 78.148438 -65.40625 80.578125 -72.851562 80.578125 -81.90625 C 80.578125 -87.300781 79.5 -92.316406 77.34375 -96.953125 C 75.195312 -101.585938 72.023438 -105.3125 67.828125 -108.125 C 63.640625 -110.9375 58.515625 -112.34375 52.453125 -112.34375 C 48.804688 -112.34375 45.660156 -112.148438 43.015625 -111.765625 C 40.367188 -111.378906 37.613281 -110.742188 34.75 -109.859375 L 34.75 -17.375 C 34.75 -14.28125 35.242188 -11.242188 36.234375 -8.265625 C 37.222656 -5.296875 38.4375 -2.816406 39.875 -0.828125 L 39.875 0 L 13.890625 0 Z M 13.890625 -0.828125 "/></g></g></g><g fill="#e1deda" fill-opacity="1"><g transform="translate(243.67764, 244.3767)"><g><path d="M 47.3125 1.8125 C 40.144531 1.8125 33.414062 0.957031 27.125 -0.75 C 20.84375 -2.457031 15.882812 -4.359375 12.25 -6.453125 L 12.25 -34.75 L 13.890625 -34.75 C 16.648438 -24.925781 21.09375 -17.09375 27.21875 -11.25 C 33.34375 -5.40625 40.207031 -2.484375 47.8125 -2.484375 C 55.207031 -2.484375 61.132812 -4.632812 65.59375 -8.9375 C 70.0625 -13.238281 72.296875 -18.753906 72.296875 -25.484375 C 72.296875 -32.429688 69.867188 -37.78125 65.015625 -41.53125 C 60.171875 -45.28125 53.5 -48.535156 45 -51.296875 C 37.5 -53.828125 31.429688 -56.304688 26.796875 -58.734375 C 22.171875 -61.160156 18.394531 -64.523438 15.46875 -68.828125 C 12.539062 -73.128906 11.078125 -78.644531 11.078125 -85.375 C 11.078125 -91.550781 12.59375 -97.09375 15.625 -102 C 18.664062 -106.90625 22.96875 -110.738281 28.53125 -113.5 C 34.101562 -116.257812 40.53125 -117.640625 47.8125 -117.640625 C 53.550781 -117.640625 59.257812 -116.863281 64.9375 -115.3125 C 70.625 -113.769531 75.175781 -112.117188 78.59375 -110.359375 L 78.59375 -84.375 L 76.9375 -84.375 C 74.289062 -93.207031 70.289062 -100.238281 64.9375 -105.46875 C 59.59375 -110.707031 53.113281 -113.328125 45.5 -113.328125 C 39.101562 -113.328125 33.671875 -111.367188 29.203125 -107.453125 C 24.734375 -103.546875 22.5 -98.335938 22.5 -91.828125 C 22.5 -87.410156 23.738281 -83.710938 26.21875 -80.734375 C 28.707031 -77.765625 31.90625 -75.285156 35.8125 -73.296875 C 39.726562 -71.304688 44.722656 -69.265625 50.796875 -67.171875 C 58.179688 -64.640625 64.160156 -62.160156 68.734375 -59.734375 C 73.316406 -57.304688 77.207031 -53.828125 80.40625 -49.296875 C 83.601562 -44.773438 85.203125 -38.929688 85.203125 -31.765625 C 85.203125 -25.253906 83.578125 -19.4375 80.328125 -14.3125 C 77.078125 -9.1875 72.582031 -5.21875 66.84375 -2.40625 C 61.101562 0.40625 54.59375 1.8125 47.3125 1.8125 Z M 47.3125 1.8125 "/></g></g></g></svg>